<?xml version="1.0" standalone="no"?>
<!DOCTYPE svg PUBLIC "-//W3C//DTD SVG 20010904//EN"
 "http://www.w3.org/TR/2001/REC-SVG-20010904/DTD/svg10.dtd">
<svg version="1.0" xmlns="http://www.w3.org/2000/svg"
 width="557.000000pt" height="557.000000pt" viewBox="0 0 557.000000 557.000000"
 preserveAspectRatio="xMidYMid meet">
<metadata>
Created by potrace 1.16, written by Peter Selinger 2001-2019
</metadata>
<g transform="translate(0.000000,557.000000) scale(0.100000,-0.100000)"
fill="#000000" stroke="none">
<!-- <path d="M543 5555 c-135 -37 -225 -87 -322 -179 -83 -79 -152 -186 -188 -289
l-28 -82 0 -2225 0 -2225 32 -84 c43 -110 98 -193 181 -272 84 -81 146 -121
253 -162 l84 -32 2230 0 2230 0 84 32 c110 43 193 98 272 181 81 84 121 146
162 253 l32 84 0 2230 0 2230 -32 84 c-43 112 -99 196 -187 279 -81 76 -145
116 -256 158 l-75 29 -2210 2 c-1866 2 -2218 0 -2262 -12z m4492 -87 c266 -91
428 -294 456 -572 6 -65 9 -838 7 -2186 -3 -1963 -4 -2089 -21 -2145 -72 -243
-237 -406 -477 -472 -61 -17 -183 -18 -2215 -18 -2032 0 -2154 1 -2215 18
-247 68 -432 259 -482 497 -19 96 -19 4294 0 4390 57 272 292 484 567 511 39
3 1022 6 2185 5 l2115 -1 80 -27z"/> -->
<path d="M1035 4985 c-285 -63 -479 -323 -462 -620 14 -249 174 -459 409 -536
105 -35 271 -34 377 0 391 128 537 607 287 938 -138 182 -382 269 -611 218z
m263 -60 c96 -23 179 -70 253 -144 106 -106 159 -233 159 -379 0 -148 -53
-275 -160 -383 -168 -170 -421 -209 -634 -96 -78 40 -183 145 -224 223 -110
211 -71 468 97 634 138 136 322 189 509 145z" fill="#ffffff"/>
<path d="M2710 3380 c-141 -19 -253 -74 -350 -170 -115 -115 -172 -257 -172
-425 0 -237 122 -435 338 -543 144 -73 374 -73 518 0 160 80 277 222 322 389
22 84 22 224 0 309 -54 203 -224 374 -421 423 -80 20 -168 26 -235 17z m243
-80 c160 -50 299 -190 349 -355 75 -242 -32 -507 -255 -634 -155 -88 -369 -88
-524 0 -362 206 -373 717 -19 938 126 79 296 98 449 51z" fill="#ffffff"/>
<path d="M4260 1755 c-193 -44 -371 -206 -431 -392 -29 -92 -36 -237 -15 -324
91 -388 512 -583 865 -399 214 111 335 331 318 576 -17 240 -183 455 -406 525
-87 27 -243 34 -331 14z m275 -60 c188 -49 346 -210 390 -397 44 -187 -9 -372
-145 -508 -136 -137 -321 -189 -509 -145 -186 44 -347 203 -395 391 -73 284
102 582 387 659 70 18 199 19 272 0z" fill="#ffffff"/>
</g>
</svg>
