<?xml version="1.0" standalone="no"?>
<!DOCTYPE svg PUBLIC "-//W3C//DTD SVG 20010904//EN"
 "http://www.w3.org/TR/2001/REC-SVG-20010904/DTD/svg10.dtd">
<svg version="1.0" xmlns="http://www.w3.org/2000/svg"
 width="557.000000pt" height="557.000000pt" viewBox="0 0 557.000000 557.000000"
 preserveAspectRatio="xMidYMid meet">
<metadata>
Created by potrace 1.16, written by Peter Selinger 2001-2019
</metadata>
<g transform="translate(0.000000,557.000000) scale(0.100000,-0.100000)"
fill="#000000" stroke="none">
<!-- <path d="M555 5554 c-33 -8 -103 -35 -155 -61 -80 -39 -108 -59 -185 -137
-105 -105 -160 -200 -194 -333 -21 -81 -21 -86 -21 -2238 0 -2152 0 -2157 21
-2238 34 -133 89 -228 194 -333 77 -78 105 -98 185 -137 171 -83 -36 -77 2385
-77 2421 0 2214 -6 2385 77 80 39 108 59 186 137 78 78 98 105 137 186 83 175
77 -26 77 2390 0 2416 7 2203 -77 2380 -39 81 -59 107 -137 186 -78 78 -106
98 -186 137 -171 83 37 77 -2390 76 -1852 -1 -2174 -3 -2225 -15z m4455 -82
c234 -72 402 -245 467 -483 17 -60 18 -190 18 -2204 0 -2014 -1 -2144 -18
-2204 -66 -240 -237 -415 -472 -483 l-80 -23 -2140 0 -2140 0 -80 23 c-233 68
-400 237 -472 478 -17 55 -18 183 -21 2134 -2 1356 1 2110 7 2177 33 324 269
567 586 603 39 4 1015 7 2170 6 l2100 -1 75 -23z"/> -->
<path d="M1090 4994 c-227 -44 -398 -197 -476 -424 -27 -77 -27 -263 0 -340
57 -166 163 -294 301 -362 103 -51 153 -63 275 -63 86 0 129 5 170 19 205 70
336 201 406 406 14 41 19 84 19 170 0 86 -5 129 -19 170 -69 203 -196 332
-396 402 -54 19 -224 33 -280 22z m225 -69 c244 -63 415 -278 415 -525 0 -294
-246 -540 -540 -540 -294 0 -540 246 -540 540 0 244 169 461 410 524 73 19
182 20 255 1z" fill="#ffffff"/>
<path d="M2680 4994 c-184 -36 -354 -161 -432 -319 -51 -103 -63 -153 -63
-275 0 -86 5 -129 19 -170 70 -205 201 -336 406 -406 41 -14 84 -19 170 -19
86 0 129 5 170 19 205 70 336 201 406 406 14 41 19 84 19 170 0 86 -5 129 -19
170 -69 203 -196 332 -396 402 -54 19 -224 33 -280 22z m225 -69 c244 -63 415
-278 415 -525 0 -294 -246 -540 -540 -540 -294 0 -540 246 -540 540 0 244 169
461 410 524 73 19 182 20 255 1z" fill="#ffffff"/>
<path d="M4270 4994 c-227 -44 -398 -197 -476 -424 -14 -41 -19 -84 -19 -170
0 -86 5 -129 19 -170 70 -205 201 -336 406 -406 41 -14 84 -19 170 -19 86 0
129 5 170 19 205 70 336 201 406 406 14 41 19 84 19 170 0 86 -5 129 -19 170
-69 203 -196 332 -396 402 -54 19 -224 33 -280 22z m225 -69 c244 -63 415
-278 415 -525 0 -294 -246 -540 -540 -540 -294 0 -540 246 -540 540 0 244 169
461 410 524 73 19 182 20 255 1z" fill="#ffffff"/>
<path d="M1090 1764 c-227 -44 -398 -197 -476 -424 -27 -77 -27 -263 0 -340
70 -205 201 -336 406 -406 77 -27 263 -27 340 0 205 70 336 201 406 406 14 41
19 84 19 170 0 86 -5 129 -19 170 -69 203 -196 332 -396 402 -54 19 -224 33
-280 22z m225 -69 c244 -63 415 -278 415 -525 0 -294 -246 -540 -540 -540
-294 0 -540 246 -540 540 0 244 169 461 410 524 73 19 182 20 255 1z" fill="#ffffff"/>
<path d="M2680 1764 c-227 -44 -398 -197 -476 -424 -14 -41 -19 -84 -19 -170
0 -86 5 -129 19 -170 70 -205 201 -336 406 -406 77 -27 263 -27 340 0 205 70
336 201 406 406 14 41 19 84 19 170 0 86 -5 129 -19 170 -69 203 -196 332
-396 402 -54 19 -224 33 -280 22z m225 -69 c244 -63 415 -278 415 -525 0 -294
-246 -540 -540 -540 -294 0 -540 246 -540 540 0 244 169 461 410 524 73 19
182 20 255 1z" fill="#ffffff"/>
<path d="M4270 1764 c-184 -36 -354 -161 -432 -319 -51 -103 -63 -153 -63
-275 0 -86 5 -129 19 -170 70 -205 201 -336 406 -406 77 -27 263 -27 340 0
205 70 336 201 406 406 14 41 19 84 19 170 0 86 -5 129 -19 170 -69 203 -196
332 -396 402 -54 19 -224 33 -280 22z m225 -69 c244 -63 415 -278 415 -525 0
-294 -246 -540 -540 -540 -294 0 -540 246 -540 540 0 244 169 461 410 524 73
19 182 20 255 1z" fill="#ffffff"/>
</g>
</svg>
