<?xml version="1.0" standalone="no"?>
<!DOCTYPE svg PUBLIC "-//W3C//DTD SVG 20010904//EN"
 "http://www.w3.org/TR/2001/REC-SVG-20010904/DTD/svg10.dtd">
<svg version="1.0" xmlns="http://www.w3.org/2000/svg"
 width="557.000000pt" height="557.000000pt" viewBox="0 0 557.000000 557.000000"
 preserveAspectRatio="xMidYMid meet">
<metadata>
Created by potrace 1.16, written by Peter Selinger 2001-2019
</metadata>
<g transform="translate(0.000000,557.000000) scale(0.100000,-0.100000)"
fill="#000000" stroke="none">
<!-- <path d="M575 5563 c-146 -33 -282 -109 -380 -214 -77 -82 -117 -145 -158
-250 l-32 -84 0 -2230 0 -2230 32 -84 c43 -110 98 -193 181 -272 84 -81 146
-121 253 -162 l84 -32 2230 0 2230 0 84 32 c110 43 193 98 272 181 81 84 121
146 162 253 l32 84 0 2225 0 2225 -28 82 c-36 104 -105 210 -188 288 -82 77
-145 117 -250 158 l-84 32 -2210 1 c-1215 1 -2219 0 -2230 -3z m4420 -82 c195
-51 357 -186 440 -366 64 -137 60 10 60 -2335 0 -2027 -1 -2149 -18 -2210 -68
-247 -259 -432 -497 -482 -96 -19 -4294 -19 -4390 0 -244 51 -451 258 -502
502 -19 96 -19 4294 0 4390 58 280 293 483 592 513 19 2 987 3 2150 3 1708 -2
2125 -5 2165 -15z"/> -->
<path d="M1034 4986 c-123 -28 -259 -114 -333 -209 -275 -358 -93 -871 344
-964 90 -19 227 -12 316 16 171 54 322 206 380 383 34 105 34 271 0 376 -58
176 -197 318 -372 379 -92 32 -242 40 -335 19z m265 -61 c93 -22 177 -70 252
-145 214 -211 214 -547 0 -761 -214 -214 -550 -214 -761 0 -106 107 -160 235
-160 381 0 146 54 275 160 380 136 137 321 189 509 145z" fill="#ffffff"/>
<path d="M4256 1755 c-198 -50 -369 -209 -428 -397 -33 -106 -33 -273 1 -376
112 -342 509 -510 833 -352 370 180 453 676 162 966 -61 62 -156 121 -233 145
-86 28 -252 35 -335 14z m277 -60 c190 -49 348 -209 392 -396 44 -188 -8 -373
-145 -509 -136 -137 -321 -189 -509 -145 -185 44 -347 204 -396 390 -19 75
-19 194 0 268 48 186 202 342 388 392 69 18 199 19 270 0z" fill="#ffffff"/>
</g>
</svg>
