<?xml version="1.0" standalone="no"?>
<!DOCTYPE svg PUBLIC "-//W3C//DTD SVG 20010904//EN"
 "http://www.w3.org/TR/2001/REC-SVG-20010904/DTD/svg10.dtd">
<svg version="1.0" xmlns="http://www.w3.org/2000/svg"
 width="557.000000pt" height="557.000000pt" viewBox="0 0 557.000000 557.000000"
 preserveAspectRatio="xMidYMid meet">
<metadata>
Created by potrace 1.16, written by Peter Selinger 2001-2019
</metadata>
<g transform="translate(0.000000,557.000000) scale(0.100000,-0.100000)"
fill="#000000" stroke="none">
<!-- <path d="M598 5560 c-263 -45 -475 -230 -566 -495 l-27 -80 0 -2200 0 -2200
27 -80 c81 -234 239 -392 473 -473 l80 -27 2200 0 2200 0 80 27 c234 81 392
239 473 473 l27 80 0 2200 0 2200 -27 80 c-81 234 -239 392 -473 473 l-80 27
-2170 1 c-1194 1 -2191 -2 -2217 -6z m4385 -86 c246 -54 441 -250 493 -494 20
-97 20 -4293 0 -4390 -41 -191 -174 -360 -351 -445 -146 -70 17 -65 -2340 -65
-2357 0 -2194 -5 -2340 65 -183 88 -321 269 -355 465 -8 46 -10 678 -8 2215
l3 2150 27 73 c38 105 83 176 158 252 95 94 207 154 335 180 22 4 1000 8 2173
9 1920 1 2140 -1 2205 -15z"/> -->
<path d="M1045 4993 c-172 -45 -292 -128 -380 -264 -73 -110 -90 -172 -90
-329 0 -116 3 -144 23 -199 62 -171 202 -311 373 -373 55 -20 83 -23 199 -23
116 0 144 3 199 23 171 62 311 202 373 373 20 55 23 83 23 199 0 116 -3 144
-23 199 -46 127 -129 232 -243 306 -103 68 -173 88 -314 91 -66 2 -129 0 -140
-3z m275 -70 c178 -49 323 -194 375 -377 23 -78 23 -214 0 -292 -53 -184 -194
-326 -380 -380 -79 -23 -211 -23 -290 0 -186 54 -327 196 -380 380 -11 36 -17
94 -17 146 0 149 52 280 153 381 145 146 341 197 539 142z" fill="#ffffff"/>
<path d="M4275 4993 c-172 -45 -292 -128 -380 -264 -73 -110 -90 -172 -90
-329 0 -116 3 -144 23 -199 62 -171 202 -311 373 -373 55 -20 83 -23 199 -23
116 0 144 3 199 23 171 62 311 202 373 373 20 55 23 83 23 199 0 116 -3 144
-23 199 -46 127 -129 232 -243 306 -103 68 -173 88 -314 91 -66 2 -129 0 -140
-3z m275 -70 c178 -49 323 -194 375 -377 11 -36 17 -94 17 -146 0 -152 -53
-281 -158 -385 -106 -105 -235 -158 -384 -158 -149 0 -278 53 -384 158 -105
104 -158 233 -158 385 0 149 52 280 153 381 145 146 341 197 539 142z" fill="#ffffff"/>
<path d="M1045 1763 c-172 -45 -292 -128 -380 -264 -73 -110 -90 -172 -90
-329 0 -116 3 -144 23 -199 62 -171 202 -311 373 -373 55 -20 83 -23 199 -23
116 0 144 3 199 23 171 62 311 202 373 373 20 55 23 83 23 199 0 116 -3 144
-23 199 -46 127 -129 232 -243 306 -103 68 -173 88 -314 91 -66 2 -129 0 -140
-3z m275 -70 c178 -49 323 -194 375 -377 23 -78 23 -214 0 -292 -53 -184 -194
-326 -380 -380 -79 -23 -211 -23 -290 0 -186 54 -327 196 -380 380 -23 78 -23
214 0 292 60 208 233 361 444 394 68 10 157 4 231 -17z" fill="#ffffff"/>
<path d="M4275 1763 c-172 -45 -292 -128 -380 -264 -73 -110 -90 -172 -90
-329 0 -116 3 -144 23 -199 62 -171 202 -311 373 -373 55 -20 83 -23 199 -23
116 0 144 3 199 23 171 62 311 202 373 373 20 55 23 83 23 199 0 116 -3 144
-23 199 -46 127 -129 232 -243 306 -103 68 -173 88 -314 91 -66 2 -129 0 -140
-3z m275 -70 c178 -49 323 -194 375 -377 11 -36 17 -94 17 -146 0 -152 -53
-281 -158 -385 -106 -105 -235 -158 -384 -158 -149 0 -278 53 -384 158 -105
104 -158 233 -158 385 0 149 52 280 153 381 145 146 341 197 539 142z" fill="#ffffff"/>
</g>
</svg>
