<?xml version="1.0" standalone="no"?>
<!DOCTYPE svg PUBLIC "-//W3C//DTD SVG 20010904//EN"
 "http://www.w3.org/TR/2001/REC-SVG-20010904/DTD/svg10.dtd">
<svg version="1.0" xmlns="http://www.w3.org/2000/svg"
 width="557.000000pt" height="557.000000pt" viewBox="0 0 557.000000 557.000000"
 preserveAspectRatio="xMidYMid meet">
<metadata>
Created by potrace 1.16, written by Peter Selinger 2001-2019
</metadata>
<g transform="translate(0.000000,557.000000) scale(0.100000,-0.100000)"
fill="#000000" stroke="none">
<!-- <path d="M565 5554 c-38 -8 -110 -35 -160 -59 -150 -73 -257 -180 -330 -330
-81 -166 -75 15 -75 -2380 0 -2395 -6 -2214 75 -2380 90 -186 239 -312 445
-377 l75 -23 2190 0 2190 0 75 23 c246 77 415 246 492 492 l23 75 0 2190 0
2190 -23 75 c-76 243 -240 409 -487 492 l-70 23 -2175 2 c-1886 1 -2184 0
-2245 -13z m4482 -95 c225 -83 376 -251 427 -476 14 -65 16 -274 16 -2198 0
-2358 5 -2194 -66 -2340 -85 -178 -245 -305 -441 -349 -65 -14 -274 -16 -2198
-16 -1924 0 -2133 2 -2198 16 -196 44 -356 171 -441 349 -71 146 -66 -18 -66
2340 0 1924 2 2133 16 2198 57 254 253 446 509 497 22 4 1014 7 2205 6 l2165
-1 72 -26z"/> -->
<path d="M2634 3370 c-371 -97 -557 -494 -393 -840 119 -253 410 -390 681
-321 93 24 167 60 233 114 297 242 297 692 0 934 -143 116 -344 160 -521 113z
m258 -51 c95 -20 194 -75 268 -149 214 -213 214 -547 0 -760 -213 -214 -547
-214 -760 0 -214 213 -214 547 -1 760 131 131 314 186 493 149z" fill="#ffffff"/>
<use xlink:href="#s-path" full-rule="evenodd"/>
</g>
</svg>
